<?xml version="1.0" encoding="utf-8"?>
<!-- Generator: Adobe Illustrator 24.3.0, SVG Export Plug-In . SVG Version: 6.00 Build 0)  -->
<svg version="1.1" id="logo" xmlns="http://www.w3.org/2000/svg" xmlns:xlink="http://www.w3.org/1999/xlink" x="0px" y="0px"
	 width="227.7px" height="82.7px" viewBox="0 0 227.7 82.7" style="enable-background:new 0 0 227.7 82.7;" xml:space="preserve">
<style type="text/css">
	.st0{fill:#000031;stroke:#383951;stroke-width:0.1059;stroke-miterlimit:10;}
	.st1{fill:#E5B745;}
	.st2{display:none;fill:#FCC81A;stroke:#383951;stroke-width:0.1059;stroke-miterlimit:10;}
	.st3{fill:#E5B745;stroke:#7F6021;stroke-width:0.1059;stroke-miterlimit:10;}
	.st4{fill:#E5B745;stroke:#000031;stroke-width:0.1059;}
	.st5{fill:none;stroke:#000031;stroke-width:5.300000e-02;stroke-linecap:round;}
	.st6{fill:#E5B745;stroke:#000031;stroke-width:7.950000e-02;stroke-linecap:round;stroke-miterlimit:10;}
	.st7{fill:#E5B745;stroke:#000031;stroke-width:0.1589;stroke-miterlimit:10;}
	.st8{fill:none;stroke:#383951;stroke-width:7.950000e-02;stroke-linecap:round;stroke-miterlimit:10;}
	.st9{fill:#E5B745;stroke:#000031;stroke-width:0.1059;stroke-miterlimit:10;}
	.st10{fill:#E5B745;stroke:#000031;stroke-width:7.950000e-02;stroke-miterlimit:10;}
	.st11{fill:#FFFFFF;}
	.st12{fill:#FD0000;}
	.st13{fill:#000031;stroke:#E5B745;stroke-width:0.3178;stroke-miterlimit:10;}
</style>
<path d="M87.1,34.6c0,0-0.5,1.1-3.4,1.1v-6.2c-1,0.7-2,1.3-3.1,1.8l-0.5-0.5c2.5-2.7,4.4-5.9,5.4-9.4h0.3v-1h-4.9l-0.2-1h5.2v-3.6
	l5.6,0.4c0,0.6-0.3,0.9-1.4,1.1v2.2h4.4v-3.6l5.6,0.4c0,0.6-0.3,0.9-1.5,1.1v2.1h1.6l2-2.5l3.8,2.7c-0.4,0.6-1.1,0.9-1.9,0.8h-5.5
	v1.3c0,0.2-1,1-3.1,1h-1v-2.3H90v1.4c-0.1,0.2-0.3,0.4-0.5,0.4l2.1,0.4c-0.2,0.5-0.5,0.7-1.7,0.7c-0.2,0.4-0.5,0.7-0.8,1.1h8.9
	l1.8-2.1l4.5,3.3c-0.5,0.5-1.1,0.7-1.7,0.8c-0.5,7.5-1.3,9.6-5.8,9.6c0-2.3-1-2.7-1.7-3v0.7c0,0.1-1.1,1-3.7,1v-1.5h-4.1
	C87.1,33.2,87.1,34.6,87.1,34.6z M117.6,40.7l2.7-3.5l5,3.5c-0.3,0.6-0.9,0.8-2.3,0.8H80.8l-0.3-0.9H117.6z M95,31.9
	c0.7,0,1.3,0,1.7,0c0.2,0.1,0.5,0,0.6-0.2c0.4-0.5,0.7-2.4,1-6.4h-10c-0.6,0.7-1.3,1.4-2,2l1,0.4H91l1.3-1.6l3.8,2.6
	c-0.3,0.3-0.7,0.5-1.1,0.6L95,31.9L95,31.9z M87.1,32.3h4.1v-3.5h-4.2L87.1,32.3L87.1,32.3z M112.9,52.3l1.8-2.3l5.2,3.5
	c-0.4,0.4-0.9,0.7-1.5,0.8v5.3c0,0.1-1.5,1.3-5.1,1.3v-2.2h-21v0.7c0,0-0.8,1.7-4.9,1.7V50.2l5.3,2.1L112.9,52.3L112.9,52.3z
	 M113.4,42l4.6,2.7c-0.3,0.6-0.9,0.8-2.2,0.8H88.4l-0.2-1H111L113.4,42z M88.4,49.3l-0.2-1h23l2.4-2.5l4.6,2.7
	c-0.3,0.6-1,0.8-2.2,0.8L88.4,49.3L88.4,49.3z M89,37.8l-0.2-1H110l2.5-3l4.8,3.1c-0.3,0.7-0.9,0.9-2.2,0.9L89,37.8L89,37.8z
	 M92.4,57.8h20.9v-4.6H92.4V57.8z M125.4,21.6c-0.4,0.6-1,0.8-2.3,0.8H122c-1.1,2.7-2.8,5.1-5,7c2.9,1.2,5.9,2,8.9,2.4l-0.1,0.5
	c-1.8,0.7-2.7,2.1-2.9,4.4c-3.4-1-6.4-2.8-9-5.1c-3.5,1.9-7.3,3.2-11.2,3.9l-0.2-0.7c3.5-1,6.8-2.8,9.6-5.1c-1.2-1.5-2.2-3.2-3-4.9
	c-1.4,1.5-3,2.9-4.8,3.9l-0.6-0.4c2-2.8,3.8-7.6,4.9-12.6l6.4,2.1c-0.2,0.6-0.6,0.9-1.8,0.9c-0.5,1-1.1,1.9-1.6,2.8h6.5l2.5-3.4
	L125.4,21.6z M111,22.4c-0.4,0.5-0.8,1-1.2,1.5c1.1,1.5,2.5,2.8,4.1,3.8c1.3-1.6,2.3-3.4,2.9-5.3H111L111,22.4z"/>
<path d="M130,59.1c4.5-2.8,8.4-6.5,11.2-11l5.9,3.5c-0.3,0.4-0.7,0.6-1.1,0.5c-0.2,0-0.4,0-0.7,0c-4.3,3.7-9.4,6.3-14.9,7.7
	L130,59.1z M153.1,28.8c-0.3,0.4-0.9,0.5-2,0.6c-3.7,7.2-10.7,12.8-20.8,15.9l-0.2-0.8c5-2.2,9.3-5.5,12.7-9.7c-0.1,0-0.3,0-0.4,0
	c-0.6,0-1.1-0.2-1.5-0.6c-0.3-1.1-1-2.2-1.8-3c-1.1,0.9-2.3,1.8-3.6,2.6c3.1,0.6,4.2,1.9,4.2,3.1c0,1.1-0.9,1.9-1.9,1.9
	c-0.6,0-1.1-0.3-1.5-0.7c-0.2-1.4-0.8-2.7-1.8-3.7c-1,0.6-2,1.1-3,1.5l-0.4-0.5c4.3-3.3,7.5-7.7,9.6-12.8l5.9,1.6
	c-0.2,0.5-0.6,0.7-1.8,0.6c-0.6,0.9-1.3,1.8-2,2.6h3.7l2.5-2.4L153.1,28.8z M174.9,23.1c-0.5,0.4-1.2,0.6-1.8,0.5
	c-1.1,1.1-2.3,2.1-3.6,2.9l2.5,2.3c-0.6,0.4-1.2,0.6-1.9,0.5c-1.8,2.1-3.9,4-6.1,5.5c3.5,2,7.3,3.5,11.2,4.5l-0.1,0.5
	c-2,0.5-3.6,2.1-4,4.1c-8.5-3.7-14.7-9.5-17.5-19.6l0.7-0.4c1.7,4.2,4.7,7.7,8.5,10.1c1-1.9,1.9-3.9,2.6-6h-6.9l-0.3-1h6.9l2.5-2.5
	l0.3,0.2c0.1-0.9,0.3-1.8,0.4-2.6H137c0.3,3.5-1.5,5.8-4,5.8c-1.5,0-2.7-0.8-2.7-2.2c0.1-1.2,0.9-2.2,2-2.5c1.8-0.7,3.1-2.4,3.2-4.4
	h0.7c0.3,0.8,0.5,1.5,0.6,2.4h13v-5.6l7.1,0.7c-0.1,0.7-0.5,1.1-2,1.3v3.7h12.8l2.5-2.6L174.9,23.1z M169.3,45.7
	c-0.3,0.7-1,0.9-2.2,0.9h-12.2V55c0,3.4-0.9,5.6-6.5,6c0-3.4-0.9-4.3-4.5-4.7v-0.6h5.2c0.3,0,0.6-0.2,0.7-0.5c0-0.1,0-0.1,0-0.2
	v-8.5h-14.2l-0.3-1h26.4l2.6-3.1L169.3,45.7z M142,28.4c-0.6,0.7-1.3,1.3-2,1.9c3,0.3,4.1,1.4,4.3,2.4c0.9-1.4,1.7-2.8,2.3-4.3
	C146.6,28.4,142,28.4,142,28.4z M143.8,40.4l-0.3-1h11.1l2.4-2.8l4.5,2.9c-0.3,0.6-1,0.8-2.2,0.8L143.8,40.4L143.8,40.4z M159,49.1
	c10.9,0.6,14.5,4.8,14.5,7.6c0.1,1.4-0.9,2.5-2.3,2.6c0,0-0.1,0-0.1,0c-0.6,0-1.1-0.2-1.6-0.4c-2.1-3.4-6.7-7.3-10.7-9.3L159,49.1z"
	/>
<path d="M223.2,23.9c-0.3,0.6-1,0.8-2.3,0.8H189v11.2c0,8-0.5,18.3-9.2,25.1l-0.5-0.4c4.3-7.3,4.6-16.4,4.6-24.7V21.6l5.9,2.2h10.9
	v-7.9l7.2,0.7c-0.1,0.7-0.6,1-2.1,1.3v5.9h9.6l2.8-3.8L223.2,23.9z M219.3,29.9l5,3.9c-0.4,0.6-1,0.8-2.3,0.8h-12.3v20
	c0,3.5-1.1,6-7.8,6.5c0-4.3-2.7-4.8-7-5.2v-0.6h8.4c0.7,0,1-0.2,1-0.7V34.6h-13.4l-0.2-1h25.8L219.3,29.9z"/>
<path d="M81.9,68.6l4.8,8.6l0,0v-7c0-1-0.1-1.1-1.1-1.1v-0.5h2.9v0.5c-0.9,0-1.1,0.1-1.1,1.1v8.9h-1l-5.2-9.2l0,0v7.4
	c0,1,0.1,1.1,1.1,1.1V79h-2.9v-0.5c1,0,1.1-0.1,1.1-1.1v-7.2c0-1-0.1-1.1-1.1-1.1v-0.5L81.9,68.6L81.9,68.6z"/>
<path d="M94,73.8c0.1-0.7-0.3-1.4-1-1.5c-0.1,0-0.2,0-0.3,0c-0.7,0-1.3,0.4-1.5,1.1c-0.1,0.3-0.3,0.5-0.6,0.4
	c-0.3,0-0.5-0.2-0.5-0.4c0,0,0-0.1,0-0.1c0-0.7,1-1.6,2.7-1.6c0.7-0.1,1.5,0.1,2,0.6c0.4,0.4,0.6,1,0.5,1.6v3.5c0,0.7,0.2,1,0.5,1
	c0.1,0,0.3,0,0.4-0.1l0.1,0.4C95.9,79,95.5,79,95.2,79c-0.5,0.1-1-0.2-1.2-0.8l0,0c-0.6,0.6-1.4,0.9-2.2,0.9c-1,0.1-2-0.6-2.1-1.7
	c-0.1-0.8,0.3-1.5,1-1.9c0.7-0.4,1.5-0.7,2.4-0.9l1-0.2L94,73.8C94,73.8,94,73.8,94,73.8z M94,74.9c-2.1,0.5-3,1.2-3,2.2
	c-0.1,0.7,0.4,1.3,1.1,1.3c0.1,0,0.2,0,0.3,0c0.6,0,1.2-0.3,1.7-0.8V74.9L94,74.9z"/>
<path d="M96.8,72.5v-0.4c1.1-0.1,1.5-0.7,1.8-2.2h0.4v2h1.9v0.6h-1.9v4.9c0,0.8,0.3,1.2,0.9,1.2c0.4,0,0.8-0.2,1.1-0.4l0.3,0.4
	c-0.5,0.4-1.1,0.6-1.7,0.6c-0.9,0.1-1.7-0.5-1.8-1.4c0-0.1,0-0.3,0-0.4v-4.9L96.8,72.5L96.8,72.5z"/>
<path d="M104.4,71.8v5.7c0,0.9,0.1,1,1,1v0.4h-3.3v-0.4c0.9,0,1-0.1,1-1.1v-3.7c0-1-0.1-1-1-1v-0.4c0.8-0.1,1.5-0.3,2.1-0.7
	L104.4,71.8z M104.5,69.9c0.1,0.5-0.2,0.9-0.7,1c0,0-0.1,0-0.1,0c-0.5-0.2-0.8-0.7-0.6-1.3c0.1-0.3,0.3-0.5,0.6-0.6
	C104.2,69.1,104.5,69.5,104.5,69.9C104.5,69.9,104.5,69.9,104.5,69.9z"/>
<path d="M106.3,75.4c0-2.3,1.2-3.7,3.3-3.7s3.3,1.2,3.3,3.7c0,2.2-0.9,3.7-3.3,3.7S106.3,77.7,106.3,75.4z M107.7,75.4
	c-0.1,0.9,0.1,1.8,0.6,2.6c0.3,0.4,0.8,0.7,1.4,0.6c1.7,0,2-1.8,2-3.2c0-2-0.6-3.2-2-3.2C108.1,72.2,107.7,73.8,107.7,75.4
	C107.7,75.4,107.7,75.4,107.7,75.4z"/>
<path d="M116.4,73c0.6-0.8,1.4-1.2,2.4-1.3c1.7,0,2.2,1,2.2,2.3v3.5c0,0.9,0.1,1,0.8,1V79h-2.8v-0.4c0.7,0,0.8-0.1,0.8-1.1v-3.4
	c0-1.3-0.4-1.7-1.3-1.7c-0.8,0.2-1.6,0.7-2,1.4v3.7c0,0.9,0,1,0.7,1v0.4h-2.9v-0.4c0.8,0,0.9-0.1,0.9-1.1v-3.7c0-0.9-0.1-1-0.9-1
	v-0.4c0.7-0.1,1.3-0.3,1.9-0.7l0.2,0.1L116.4,73L116.4,73L116.4,73z"/>
<path d="M127,73.8c0.1-0.7-0.3-1.4-1-1.5c-0.1,0-0.2,0-0.3,0c-0.7,0-1.3,0.4-1.5,1.1c-0.1,0.3-0.3,0.5-0.6,0.4
	c-0.3,0-0.5-0.2-0.5-0.4c0,0,0-0.1,0-0.1c0-0.7,1-1.6,2.7-1.6c0.7-0.1,1.5,0.1,2,0.6c0.4,0.4,0.6,1,0.5,1.6v3.5c0,0.7,0.1,1,0.5,1
	c0.1,0,0.3,0,0.4-0.1l0.1,0.4c-0.3,0.1-0.7,0.2-1.1,0.2c-0.5,0.1-1-0.3-1.1-0.8l0,0c-0.6,0.6-1.4,0.9-2.2,0.9c-1,0.1-2-0.6-2.1-1.7
	c-0.1-0.8,0.3-1.5,1-1.9c0.7-0.4,1.5-0.7,2.4-0.9l1-0.2L127,73.8C127,73.8,127,73.8,127,73.8z M127,74.9c-2.1,0.5-3,1.2-3,2.2
	c-0.1,0.7,0.4,1.3,1.1,1.3c0.1,0,0.2,0,0.3,0c0.6,0,1.2-0.3,1.6-0.8L127,74.9L127,74.9z"/>
<path d="M130,78.5c1,0,1-0.1,1-1.1v-7.4c0-0.9-0.1-1-1-1v-0.3c0.7-0.1,1.5-0.3,2.1-0.7l0.1,0.1v9.3c0,0.9,0.1,1,1,1v0.4H130V78.5z"
	/>
<path d="M138.1,78.5c1,0,1.1-0.1,1.1-1.1v-7.2c0-1-0.1-1.1-1.1-1.1v-0.5h3.7c1-0.1,2.1,0.1,2.9,0.7c1.2,1.1,1.3,3,0.2,4.1
	c-0.1,0.1-0.1,0.1-0.2,0.2c-0.9,0.6-2,0.9-3.1,0.8h-1.1v3c0,1,0.1,1.1,1.3,1.1v0.5h-3.8L138.1,78.5
	C138.1,78.5,138.1,78.5,138.1,78.5z M141.7,73.7c1.6,0,2.6-0.5,2.6-2.3c0-2.1-1.6-2.2-2.6-2.2H141c-0.3,0-0.3,0.1-0.3,0.8v3.7H141.7
	L141.7,73.7z"/>
<path d="M146.9,75.4c0-2.3,1.2-3.7,3.4-3.7s3.4,1.2,3.4,3.7c0,2.2-0.9,3.7-3.4,3.7S146.9,77.7,146.9,75.4z M148.2,75.4
	c-0.1,0.9,0.1,1.8,0.6,2.6c0.3,0.4,0.8,0.7,1.4,0.6c1.7,0,2-1.8,2-3.2c0-2-0.6-3.2-2-3.2C148.6,72.2,148.2,73.8,148.2,75.4
	L148.2,75.4z"/>
<path d="M154.7,78.5c1,0,1-0.1,1-1.1v-7.4c0-0.9-0.1-1-1-1v-0.3c0.7-0.1,1.5-0.3,2.1-0.7l0.1,0.1v9.3c0,0.9,0.1,1,1,1v0.4h-3.2
	L154.7,78.5L154.7,78.5z"/>
<path d="M161.1,71.8v5.7c0,0.9,0.1,1,1,1v0.4h-3.3v-0.4c0.9,0,1-0.1,1-1.1v-3.7c0-1-0.1-1-1-1v-0.4c0.7-0.1,1.5-0.3,2.1-0.6
	L161.1,71.8z M161.2,69.9c0.1,0.5-0.2,0.9-0.7,1c0,0-0.1,0-0.1,0c-0.5-0.2-0.8-0.7-0.6-1.3c0.1-0.3,0.3-0.5,0.6-0.6
	C160.9,69.1,161.2,69.5,161.2,69.9C161.2,69.9,161.2,69.9,161.2,69.9z"/>
<path d="M168.9,77.6c-0.5,1-1.5,1.6-2.6,1.5c-2.6,0-3.2-2.1-3.2-3.7c0-2.2,1.3-3.7,3.3-3.7c1.5,0,2.4,0.8,2.4,1.5
	c0,0.3-0.1,0.5-0.4,0.6c0,0,0,0-0.1,0c-0.4-0.1-0.7-0.4-0.8-0.8c-0.2-0.5-0.6-0.8-1.1-0.7c-1,0-2,1-2,3.1c0,2.5,1.1,3.2,2.1,3.2
	c0.8,0,1.6-0.5,1.9-1.2L168.9,77.6z"/>
<path d="M176,77.4c-0.5,1-1.6,1.7-2.7,1.7c-2.6,0-3.4-1.8-3.4-3.8c0-1.7,0.9-3.5,3.1-3.5c2.4,0,2.9,2.1,2.9,3.6h-4.7
	c-0.1,0.8,0.1,1.6,0.5,2.3c0.3,0.6,0.9,0.9,1.6,0.9c0.9,0,1.7-0.5,2.1-1.3L176,77.4z M174.7,74.8c0-0.9-0.2-2.6-1.6-2.6
	c-0.7,0-1.6,0.6-1.8,2.6H174.7L174.7,74.8z"/>
<path d="M186.6,75.7h-3.5l-0.5,1.7c-0.1,0.2-0.1,0.5-0.1,0.7c0,0.3,0.2,0.4,0.7,0.4V79h-2.3v-0.5c0.5,0,0.7-0.1,0.9-0.8l2.9-9.3h0.8
	l3.2,9.1c0.3,0.8,0.4,1,1,1V79h-3v-0.5c0.6,0,0.8-0.1,0.8-0.4c0-0.2-0.1-0.4-0.1-0.6L186.6,75.7z M186.4,75.1l-1.6-4.8l0,0l-1.4,4.8
	H186.4L186.4,75.1z"/>
<path d="M195.8,72.6c0.5,0.5,0.8,1.1,0.7,1.8c0,1.4-1.1,2.6-2.6,2.6c-0.1,0-0.2,0-0.3,0c-0.5,0-1-0.1-1.4-0.3
	c-0.3,0.1-0.6,0.5-0.7,0.8c0,0.4,0.4,0.6,1.3,0.6h1.6c2.2,0,2.9,1,2.9,2c0,1.4-1.4,2.6-3.8,2.6c-2,0-3.3-0.6-3.3-1.8
	c0.1-0.9,0.8-1.7,1.7-1.9c-0.6,0-1.1-0.5-1.1-1.1c0.1-0.6,0.5-1.2,1.1-1.4c-0.7-0.5-1.2-1.3-1.1-2.1c0.1-1.5,1.3-2.6,2.7-2.5
	c0.1,0,0.1,0,0.2,0c0.6,0,1.2,0.1,1.7,0.4l2-0.2v0.7L195.8,72.6z M192.4,79.1c-0.7,0.3-1.1,0.9-1.2,1.6c0,0.9,0.9,1.5,2.3,1.5
	c1.8,0,2.7-0.9,2.7-1.8c0-0.6-0.4-1.3-2-1.3L192.4,79.1L192.4,79.1L192.4,79.1z M195.2,74.3c0.1-1-0.5-1.9-1.5-2.1c0,0-0.1,0-0.1,0
	c-1,0.1-1.8,1-1.6,2c0,0,0,0,0,0.1c0,1.2,0.6,2.1,1.7,2.1S195.2,75.5,195.2,74.3L195.2,74.3z"/>
<path d="M204.3,77.4c-0.5,1-1.6,1.7-2.7,1.7c-2.6,0-3.4-1.8-3.4-3.8c0-1.7,0.9-3.5,3.1-3.5c2.4,0,2.9,2.1,2.9,3.6h-4.7
	c-0.1,0.8,0.1,1.6,0.5,2.3c0.3,0.6,0.9,0.9,1.6,0.9c0.9,0,1.7-0.5,2.1-1.3L204.3,77.4z M203,74.8c0-0.9-0.2-2.6-1.6-2.6
	c-0.7,0-1.6,0.6-1.8,2.6H203z"/>
<path d="M207.6,73c0.6-0.8,1.4-1.2,2.4-1.3c1.6,0,2.2,1,2.2,2.3v3.5c0,0.9,0.1,1,0.8,1V79h-2.8v-0.4c0.7,0,0.8-0.1,0.8-1.1v-3.4
	c0-1.3-0.4-1.7-1.3-1.7c-0.8,0.2-1.6,0.7-2,1.4v3.7c0,0.9,0,1,0.7,1v0.4h-2.9v-0.4c0.8,0,0.9-0.1,0.9-1.1v-3.7c0-0.9-0.1-1-0.9-1
	v-0.4c0.7-0.1,1.3-0.3,1.9-0.7l0.2,0.1L207.6,73L207.6,73L207.6,73z"/>
<path d="M219.7,77.6c-0.5,1-1.5,1.6-2.6,1.5c-2.6,0-3.2-2.1-3.2-3.7c0-2.2,1.3-3.7,3.3-3.7c1.5,0,2.4,0.8,2.4,1.5
	c0,0.3-0.1,0.5-0.4,0.6c0,0,0,0-0.1,0c-0.4-0.1-0.7-0.4-0.8-0.8c-0.2-0.5-0.6-0.8-1.1-0.7c-1,0-2,1-2,3.1c0,2.5,1.1,3.2,2.1,3.2
	c0.8,0,1.6-0.5,1.9-1.2L219.7,77.6z"/>
<path d="M223.8,78.9l-2.5-5.6c-0.4-0.9-0.5-1-1-1v-0.4h2.9v0.4c-0.5,0-0.7,0.1-0.7,0.3c0,0.2,0.1,0.4,0.1,0.5l1.8,4.2l0,0l1.7-4.4
	c0-0.1,0.1-0.2,0.1-0.3c0-0.2-0.2-0.3-0.7-0.3v-0.4h2.1v0.4c-0.5,0-0.6,0.1-0.9,0.7l-3,7.7c-0.6,1.3-1.2,2-2.2,2
	c-0.7,0.1-1.3-0.3-1.5-1c0-0.2,0.2-0.4,0.4-0.5c0,0,0,0,0,0c0.3,0,0.6,0.2,0.7,0.5c0.1,0.2,0.3,0.4,0.6,0.5c0.6,0,1.1-0.9,1.3-1.5
	L223.8,78.9z"/>
<g>
	<g>
		<path id="下_1_" class="st0" d="M18.2,12.4C24-0.6,40.7-1.1,47,12.9c10.7,1.6,16.9,6.3,16.9,6.3c0.8,26.5-13.2,51.6-31.7,61.3
			C12.7,70.1,0.2,46.3,0.7,18.2C8.8,13.3,18.2,12.4,18.2,12.4z"/>
		<path class="st1" d="M61.5,35.3c-20.2-9.3-38.8-9.5-58.4-0.5l-0.6-1.4c20.1-9.2,39.1-9.1,59.7,0.5L61.5,35.3z"/>
		<path id="外枠_1_" class="st2" d="M56.7,50.2c-3.1,7-7.6,13.8-12.8,19.4c-4.1,4.3-8.4,7.6-11.7,9c-3.3-1.5-7.5-4.8-11.5-9.2
			c-5.1-5.6-9.5-12.6-12.4-19.6C4.7,41,3,31.8,2.9,19.2c7-3.7,11.9-4.7,16.9-4.9C21.2,9,25.7,4,32.3,4s12.3,5.2,13.5,10.5
			c5,0.2,9.9,1.3,16.8,5.2C62.4,32.3,60.5,41.5,56.7,50.2z M47.1,12.3C44.3,5.2,38,1.8,32.4,1.8S20.6,5.1,17.6,12
			c-4.9,0.5-10,1.8-17.4,5.8c0,12.5,1.4,22.8,5.6,32.8C12.4,66.1,24.1,78,31.5,80.9l0.2,0.1l0.3-0.1c7.5-2.7,19.4-14.4,26.2-29.8
			c4.4-9.9,6-20.1,6.2-32.7C57.1,14.2,52,12.8,47.1,12.3z"/>
		<path id="外枠_2_" class="st3" d="M32.3,78.6c-3.3-1.4-7.6-4.7-11.6-9C15.5,64,11,57.1,7.9,50.2c-3.8-8.7-5.6-17.9-6-30.5
			c7-3.8,11.8-4.9,16.8-5.2C20,9.2,25.7,4,32.3,4s12.3,5.2,13.5,10.5c5,0.2,9.9,1.3,16.8,5.2c-0.3,12.6-2.1,21.8-6,30.5
			c-3.1,7-7.6,13.8-12.8,19.4C39.9,73.9,35.6,77.2,32.3,78.6z M32.3,80.8c7.5-2.7,19.3-14.4,26.1-29.8c4.4-9.9,6-20.1,6.2-32.7
			c-7.3-4.2-12.4-5.6-17.3-6.1c-2.8-7.1-9.3-10.4-15-10.4s-12.1,3.4-15,10.4c-4.9,0.6-10,1.9-17.3,6.1c0.2,12.5,1.8,22.8,6.2,32.7
			C13,66.4,24.9,78.1,32.3,80.8z"/>
		<g>
			<g>
				<path class="st4" d="M35,67.3l-1.4-1.7c-0.1-0.1,0-0.2,0-0.2l1.1-0.7c0.1,0,0.1,0,0.2,0l1.8,1.6c0.1,0.1,0.1,0.2,0,0.2l-1.6,0.8
					C35.1,67.3,35.1,67.3,35,67.3z"/>
				<line class="st5" x1="36.4" y1="66.2" x2="35.2" y2="66.8"/>
				<line class="st5" x1="34.4" y1="66" x2="35.4" y2="65.4"/>
				<line class="st5" x1="34" y1="65.6" x2="35" y2="65"/>
				<line class="st5" x1="35.8" y1="65.8" x2="34.7" y2="66.4"/>
			</g>
			<g>
				<path class="st4" d="M29.5,67.2l1.5-1.6c0.1-0.1,0.1-0.2,0-0.2l-1.1-0.8c-0.1,0-0.1,0-0.2,0l-1.9,1.5c-0.1,0.1-0.1,0.2,0,0.2
					l1.5,0.9C29.4,67.3,29.5,67.3,29.5,67.2z"/>
				<line class="st5" x1="28.3" y1="66.1" x2="29.4" y2="66.8"/>
				<line class="st5" x1="30.2" y1="66" x2="29.3" y2="65.4"/>
				<line class="st5" x1="30.7" y1="65.6" x2="29.7" y2="64.9"/>
				<line class="st5" x1="28.9" y1="65.7" x2="30" y2="66.4"/>
			</g>
		</g>
		<g>
			<g>
				<path class="st1" d="M30.5,64.4L30.5,64.4c-0.2,0-0.3-0.1-0.3-0.3v-3.4c0-0.2,0.1-0.3,0.3-0.3l0,0c0.2,0,0.3,0.1,0.3,0.3v3.4
					C30.8,64.3,30.6,64.4,30.5,64.4z"/>
			</g>
			<g>
				<path class="st1" d="M31.2,64.4L31.2,64.4c-0.2,0-0.3-0.1-0.3-0.3v-3.4c0-0.2,0.1-0.3,0.3-0.3l0,0c0.2,0,0.3,0.1,0.3,0.3v3.4
					C31.5,64.3,31.4,64.4,31.2,64.4z"/>
			</g>
			<g>
				<path class="st1" d="M31.9,64.4L31.9,64.4c-0.2,0-0.3-0.1-0.3-0.3v-3.4c0-0.2,0.1-0.3,0.3-0.3l0,0c0.2,0,0.3,0.1,0.3,0.3v3.4
					C32.3,64.3,32.1,64.4,31.9,64.4z"/>
			</g>
			<g>
				<path class="st1" d="M32.7,64.4L32.7,64.4c-0.2,0-0.3-0.1-0.3-0.3v-3.4c0-0.2,0.1-0.3,0.3-0.3l0,0c0.2,0,0.3,0.1,0.3,0.3v3.4
					C33,64.3,32.9,64.4,32.7,64.4z"/>
			</g>
			<g>
				<path class="st1" d="M33.4,64.4L33.4,64.4c-0.2,0-0.3-0.1-0.3-0.3v-3.4c0-0.2,0.1-0.3,0.3-0.3l0,0c0.2,0,0.3,0.1,0.3,0.3v3.4
					C33.7,64.3,33.6,64.4,33.4,64.4z"/>
			</g>
			<g>
				<path class="st1" d="M34.2,64.4L34.2,64.4c-0.2,0-0.3-0.1-0.3-0.3v-3.4c0-0.2,0.1-0.3,0.3-0.3l0,0c0.2,0,0.3,0.1,0.3,0.3v3.4
					C34.5,64.3,34.3,64.4,34.2,64.4z"/>
			</g>
		</g>
		<g>
			<path class="st1" d="M42.5,38.7c0,0-1.2-3.5-3.6-3.9C40.5,36.4,42.5,38.7,42.5,38.7z"/>
			<circle class="st6" cx="35.7" cy="41.4" r="0.7"/>
			<path class="st1" d="M35.9,41.3c2.1,0.2,6.2,3.7,5.8,4.6c-1.1-1-3.6-3.5-5.8-4.3C35.8,41.6,36,41.4,35.9,41.3z"/>
			<circle class="st6" cx="39" cy="39.9" r="0.7"/>
			<path class="st1" d="M42.4,43.9c-0.1-0.8-0.8-2.8-3.2-3.9c0.1,0.1-0.2,0.2-0.1,0.3C40.8,41.5,41.3,42.3,42.4,43.9z"/>
			<circle class="st6" cx="47.6" cy="37.8" r="0.7"/>
		</g>
		<g>
			<path class="st1" d="M22.1,38.7c0,0,1.2-3.5,3.6-3.9C24.2,36.4,22.1,38.7,22.1,38.7z"/>
			<circle class="st6" cx="28.9" cy="41.4" r="0.7"/>
			<path class="st1" d="M28.7,41.3c-2.1,0.2-6.2,3.7-5.8,4.6c1.1-1,3.6-3.5,5.8-4.3C28.8,41.6,28.6,41.4,28.7,41.3z"/>
			<circle class="st6" cx="25.6" cy="39.9" r="0.7"/>
			<path class="st1" d="M22.2,43.9c0.1-0.8,0.8-2.8,3.2-3.9c-0.1,0.1,0.2,0.2,0.1,0.3C23.8,41.5,23.3,42.3,22.2,43.9z"/>
			<circle class="st6" cx="17.1" cy="37.8" r="0.7"/>
		</g>
		<g>
			<path class="st7" d="M41.2,30.9c0.4-0.9,5.3,4,6.2,9.3s-0.3,6.8-0.6,6.7c-2.5-0.7-4.1-5.1-4.7-7.5S40.4,32.6,41.2,30.9z"/>
			<g>
				<line class="st8" x1="42.9" y1="32.2" x2="42.5" y2="33.7"/>
				<line class="st8" x1="43.9" y1="33.7" x2="43.1" y2="35.7"/>
				<line class="st8" x1="45.3" y1="36.1" x2="44" y2="38.7"/>
				<line class="st8" x1="46.6" y1="38.7" x2="44.9" y2="41.4"/>
				<line class="st8" x1="47" y1="42.1" x2="45.6" y2="43.7"/>
			</g>
			<g>
				<line class="st8" x1="41.3" y1="32.1" x2="41.8" y2="32.5"/>
				<line class="st8" x1="41.4" y1="33.6" x2="42.6" y2="34.5"/>
				<line class="st8" x1="41.7" y1="35.9" x2="43.4" y2="36.8"/>
				<line class="st8" x1="42.3" y1="38.4" x2="44.3" y2="39.4"/>
				<line class="st8" x1="43" y1="41.2" x2="45.2" y2="42.5"/>
				<line class="st8" x1="43.8" y1="43.4" x2="45.6" y2="44.4"/>
				<line class="st8" x1="45.3" y1="45.1" x2="45.8" y2="45.3"/>
			</g>
			<path class="st8" d="M41.5,31.4c1.1,2.5,4.6,13.3,4.6,15"/>
			<path class="st7" d="M48.1,38.5c0.6-0.7,3.9,5.3,3.2,10.7s-3.8,6.8-4.1,6.7c-0.3,0-0.8-6.6-0.7-9.1
				C46.6,44.4,46.9,39.9,48.1,38.5z"/>
			<g>
				<line class="st8" x1="49.3" y1="40.2" x2="48.5" y2="41.5"/>
				<line class="st8" x1="49.9" y1="42" x2="48.6" y2="43.6"/>
				<line class="st8" x1="50.5" y1="44.7" x2="48.5" y2="46.7"/>
				<line class="st8" x1="51" y1="47.6" x2="48.6" y2="49.6"/>
				<line class="st8" x1="50.4" y1="50.7" x2="48.5" y2="51.8"/>
			</g>
			<g>
				<line class="st8" x1="47.5" y1="41.1" x2="48.4" y2="42.3"/>
				<path class="st8" d="M48.5,44.8"/>
				<line class="st8" x1="47" y1="45.9" x2="48.5" y2="47.5"/>
				<line class="st8" x1="46.8" y1="48.9" x2="48.6" y2="50.7"/>
				<line class="st8" x1="46.9" y1="51.2" x2="48.4" y2="52.7"/>
				<line class="st8" x1="47.2" y1="52.9" x2="47.6" y2="53.3"/>
				<line class="st8" x1="47" y1="44.1" x2="48.5" y2="45.6"/>
			</g>
			<path class="st8" d="M48.2,39c0.3,2.7,0.5,14.1,0,15.7"/>
			<path class="st7" d="M42.7,42.3c-0.8-0.6-2.6,6.1-0.7,11.1s5.2,5.8,5.5,5.7s-0.7-6.6-1.3-9C45.6,47.7,44.2,43.4,42.7,42.3z"/>
			<g>
				<line class="st8" x1="43.5" y1="43.9" x2="43.1" y2="44.8"/>
				<line class="st8" x1="44.5" y1="45.9" x2="43.5" y2="46.9"/>
				<line class="st8" x1="45.3" y1="48.8" x2="44" y2="50"/>
				<line class="st8" x1="45.9" y1="50.3" x2="44.7" y2="51.4"/>
				<line class="st8" x1="46.3" y1="51.5" x2="46" y2="51.7"/>
				<line class="st8" x1="46.4" y1="52.9" x2="45.6" y2="53.6"/>
			</g>
			<g>
				<line class="st8" x1="41.9" y1="44.7" x2="43.3" y2="45.7"/>
				<line class="st8" x1="41.7" y1="46.5" x2="43.7" y2="48.3"/>
				<line class="st8" x1="41.8" y1="49.4" x2="43.9" y2="51.7"/>
				<line class="st8" x1="42.1" y1="52.2" x2="42.6" y2="52.7"/>
			</g>
			<path class="st8" d="M42.5,42.9c0.8,1.3,2.3,11.5,2.2,14"/>
			<path class="st9" d="M52.4,50.9c1,0-1.5,6.5-6,9.4s-7.6,1.5-7.8,1.3s4.6-4.6,6.6-6.1S50.6,50.9,52.4,50.9z"/>
			<g>
				<line class="st8" x1="49.2" y1="52.9" x2="49.1" y2="54.1"/>
				<line class="st8" x1="47.4" y1="54.1" x2="47.5" y2="55.6"/>
				<line class="st8" x1="46.4" y1="54.9" x2="46.4" y2="56.5"/>
				<line class="st8" x1="43.9" y1="57.5" x2="43.9" y2="58.2"/>
			</g>
			<g>
				<line class="st8" x1="51.5" y1="52" x2="52.2" y2="52"/>
				<line class="st8" x1="48.7" y1="54.6" x2="51" y2="54.8"/>
				<line class="st8" x1="47" y1="56.1" x2="50" y2="56.1"/>
				<line class="st8" x1="45.3" y1="57.4" x2="48.7" y2="57.5"/>
				<line class="st8" x1="42.8" y1="59.2" x2="46.8" y2="59.2"/>
			</g>
			<path class="st8" d="M52.4,50.9c-2.3,3.4-12.8,10.6-13.8,11.2"/>
			<path class="st9" d="M35.5,62.9c-0.2-2.1,1.3-4.1,1.3-4.1s6.3-7.6,9-7.6c1.2,0-1.5,7.7-5.4,9.7c0,0,5.7-1,9.1-0.3
				c1.1,0.2-4.4,3.8-9.1,4.3C37.3,65.2,35.5,63.7,35.5,62.9z"/>
			<g>
				<line class="st8" x1="43" y1="52.5" x2="42.8" y2="55.2"/>
				<line class="st8" x1="41.5" y1="54.2" x2="41.2" y2="57"/>
				<line class="st8" x1="40.3" y1="55.5" x2="39.9" y2="58.5"/>
				<line class="st8" x1="38.1" y1="57.7" x2="37.5" y2="60.8"/>
				<line class="st8" x1="36.4" y1="60" x2="36.1" y2="62"/>
			</g>
			<g>
				<line class="st8" x1="45.4" y1="53.9" x2="43.6" y2="54.4"/>
				<line class="st8" x1="44.8" y1="55.3" x2="42.2" y2="55.9"/>
				<line class="st8" x1="43.3" y1="57.5" x2="40.3" y2="58.1"/>
				<line class="st8" x1="42.3" y1="58.6" x2="39.5" y2="58.9"/>
				<line class="st8" x1="38.2" y1="61.3" x2="36.3" y2="61.9"/>
			</g>
			<g>
				<line class="st8" x1="47.3" y1="60.4" x2="46.3" y2="61.6"/>
				<line class="st8" x1="45.5" y1="60.6" x2="43.8" y2="62.3"/>
				<line class="st8" x1="44" y1="60.7" x2="41.9" y2="62.6"/>
				<line class="st8" x1="41.5" y1="61.1" x2="39.7" y2="62.9"/>
				<line class="st8" x1="47.4" y1="61.5" x2="48.1" y2="61.9"/>
				<line class="st8" x1="45.8" y1="61.9" x2="46.6" y2="62.5"/>
				<line class="st8" x1="42.8" y1="62.6" x2="43.8" y2="63.5"/>
				<line class="st8" x1="40.6" y1="62.9" x2="41.9" y2="64.2"/>
				<line class="st8" x1="39.3" y1="63.1" x2="40.9" y2="64.4"/>
				<line class="st8" x1="36.8" y1="63.3" x2="38.1" y2="64.3"/>
			</g>
			<path class="st8" d="M45.5,51.7c-1.7,2.6-7,8.8-9.8,10.6"/>
			<path class="st8" d="M48.6,60.9C45,62.7,37.9,63.2,36,63.2"/>
		</g>
		<g>
			<path class="st7" d="M23.4,30.9c-0.4-0.9-5.3,4-6.2,9.3s0.3,6.8,0.6,6.7c2.5-0.7,4.1-5.1,4.7-7.5S24.2,32.6,23.4,30.9z"/>
			<g>
				<line class="st8" x1="21.8" y1="32.2" x2="22.2" y2="33.7"/>
				<line class="st8" x1="20.7" y1="33.7" x2="21.5" y2="35.7"/>
				<line class="st8" x1="19.3" y1="36.1" x2="20.6" y2="38.7"/>
				<line class="st8" x1="18" y1="38.7" x2="19.8" y2="41.4"/>
				<line class="st8" x1="17.6" y1="42.1" x2="19.1" y2="43.7"/>
			</g>
			<g>
				<line class="st8" x1="23.3" y1="32.1" x2="22.8" y2="32.5"/>
				<line class="st8" x1="23.3" y1="33.6" x2="22" y2="34.5"/>
				<line class="st8" x1="22.9" y1="35.9" x2="21.2" y2="36.8"/>
				<line class="st8" x1="22.3" y1="38.4" x2="20.4" y2="39.4"/>
				<line class="st8" x1="21.6" y1="41.2" x2="19.4" y2="42.5"/>
				<line class="st8" x1="20.8" y1="43.4" x2="19" y2="44.4"/>
				<line class="st8" x1="19.3" y1="45.1" x2="18.8" y2="45.3"/>
			</g>
			<path class="st8" d="M23.1,31.4c-1.1,2.5-4.6,13.3-4.6,15"/>
			<path class="st7" d="M16.5,38.5c-0.6-0.7-3.9,5.3-3.2,10.7c0.7,5.3,3.8,6.8,4.1,6.7s0.8-6.6,0.7-9.1
				C18.1,44.4,17.7,39.9,16.5,38.5z"/>
			<g>
				<line class="st8" x1="15.3" y1="40.2" x2="16.1" y2="41.5"/>
				<line class="st8" x1="14.8" y1="42" x2="16.1" y2="43.6"/>
				<line class="st8" x1="14.2" y1="44.7" x2="16.1" y2="46.7"/>
				<line class="st8" x1="13.7" y1="47.6" x2="16.1" y2="49.6"/>
				<line class="st8" x1="14.3" y1="50.7" x2="16.1" y2="51.8"/>
			</g>
			<g>
				<line class="st8" x1="17.2" y1="41.1" x2="16.2" y2="42.3"/>
				<path class="st8" d="M16.1,44.8"/>
				<line class="st8" x1="17.6" y1="45.9" x2="16.1" y2="47.5"/>
				<line class="st8" x1="17.8" y1="48.9" x2="16.1" y2="50.7"/>
				<line class="st8" x1="17.7" y1="51.2" x2="16.2" y2="52.7"/>
				<line class="st8" x1="17.5" y1="52.9" x2="17" y2="53.3"/>
				<line class="st8" x1="17.6" y1="44.1" x2="16.1" y2="45.6"/>
			</g>
			<path class="st8" d="M16.4,39c-0.3,2.7-0.5,14.1,0,15.7"/>
			<path class="st7" d="M21.9,42.3c0.8-0.6,2.6,6.1,0.7,11.1s-5.2,5.8-5.5,5.7s0.7-6.6,1.3-9C19.1,47.7,20.4,43.4,21.9,42.3z"/>
			<g>
				<line class="st8" x1="21.1" y1="43.9" x2="21.6" y2="44.8"/>
				<line class="st8" x1="20.2" y1="45.9" x2="21.2" y2="46.9"/>
				<line class="st8" x1="19.3" y1="48.8" x2="20.7" y2="50"/>
				<line class="st8" x1="18.8" y1="50.3" x2="20" y2="51.4"/>
				<line class="st8" x1="18.3" y1="51.5" x2="18.6" y2="51.7"/>
				<line class="st8" x1="18.2" y1="52.9" x2="19" y2="53.6"/>
			</g>
			<g>
				<line class="st8" x1="22.8" y1="44.7" x2="21.4" y2="45.7"/>
				<line class="st8" x1="22.9" y1="46.5" x2="20.9" y2="48.3"/>
				<line class="st8" x1="22.8" y1="49.4" x2="20.7" y2="51.7"/>
				<line class="st8" x1="22.5" y1="52.2" x2="22.1" y2="52.7"/>
			</g>
			<path class="st8" d="M22.2,42.9c-0.8,1.3-2.3,11.5-2.2,14"/>
			<path class="st9" d="M12.2,50.9c-1,0,1.5,6.5,6,9.4s7.6,1.5,7.8,1.3s-4.6-4.6-6.6-6.1S14.1,50.9,12.2,50.9z"/>
			<g>
				<line class="st8" x1="15.4" y1="52.9" x2="15.5" y2="54.1"/>
				<line class="st8" x1="17.2" y1="54.1" x2="17.1" y2="55.6"/>
				<line class="st8" x1="18.2" y1="54.9" x2="18.2" y2="56.5"/>
				<line class="st8" x1="20.7" y1="57.5" x2="20.7" y2="58.2"/>
			</g>
			<g>
				<line class="st8" x1="13.1" y1="52" x2="12.4" y2="52"/>
				<line class="st8" x1="15.9" y1="54.6" x2="13.7" y2="54.8"/>
				<line class="st8" x1="17.7" y1="56.1" x2="14.6" y2="56.1"/>
				<line class="st8" x1="19.3" y1="57.4" x2="15.9" y2="57.5"/>
				<line class="st8" x1="21.9" y1="59.2" x2="17.8" y2="59.2"/>
			</g>
			<path class="st8" d="M12.2,50.9C14.5,54.3,25,61.5,26,62.1"/>
			<path class="st9" d="M29.2,62.9c0.2-2.1-1.3-4.1-1.3-4.1s-6.3-7.6-9-7.6c-1.2,0,1.5,7.7,5.4,9.7c0,0-5.7-1-9.1-0.3
				c-1.1,0.2,4.4,3.8,9.1,4.3C27.3,65.2,29.1,63.7,29.2,62.9z"/>
			<g>
				<line class="st8" x1="21.7" y1="52.5" x2="21.8" y2="55.2"/>
				<line class="st8" x1="23.1" y1="54.2" x2="23.4" y2="57"/>
				<line class="st8" x1="24.3" y1="55.5" x2="24.8" y2="58.5"/>
				<line class="st8" x1="26.5" y1="57.7" x2="27.1" y2="60.8"/>
				<line class="st8" x1="28.3" y1="60" x2="28.6" y2="62"/>
			</g>
			<g>
				<line class="st8" x1="19.3" y1="53.9" x2="21" y2="54.4"/>
				<line class="st8" x1="19.8" y1="55.3" x2="22.4" y2="55.9"/>
				<line class="st8" x1="21.4" y1="57.5" x2="24.3" y2="58.1"/>
				<line class="st8" x1="22.3" y1="58.6" x2="25.1" y2="58.9"/>
				<line class="st8" x1="26.4" y1="61.3" x2="28.4" y2="61.9"/>
			</g>
			<g>
				<line class="st8" x1="17.3" y1="60.4" x2="18.3" y2="61.6"/>
				<line class="st8" x1="19.1" y1="60.6" x2="20.9" y2="62.3"/>
				<line class="st8" x1="20.6" y1="60.7" x2="22.8" y2="62.6"/>
				<line class="st8" x1="23.2" y1="61.1" x2="25" y2="62.9"/>
				<line class="st8" x1="17.2" y1="61.5" x2="16.6" y2="61.9"/>
				<line class="st8" x1="18.8" y1="61.9" x2="18" y2="62.5"/>
				<line class="st8" x1="21.8" y1="62.6" x2="20.8" y2="63.5"/>
				<line class="st8" x1="24.1" y1="62.9" x2="22.7" y2="64.2"/>
				<line class="st8" x1="25.3" y1="63.1" x2="23.7" y2="64.4"/>
				<line class="st8" x1="27.9" y1="63.3" x2="26.6" y2="64.3"/>
			</g>
			<path class="st8" d="M19.1,51.7c1.7,2.6,7,8.8,9.8,10.6"/>
			<path class="st8" d="M16.1,60.9c3.5,1.8,10.6,2.3,12.6,2.3"/>
		</g>
		<g>
			<g>
				<circle class="st10" cx="36.5" cy="33.9" r="0.6"/>
				<path class="st10" d="M36.3,32.8c0,0-0.1-1,0.2-1s0.2,1,0.2,1s0.7-0.1,0.9-1.4c0.2-1.3-0.6-1.6-0.6-1.6s-0.3,0.7-0.5,0.7
					c-0.2,0-0.4-0.7-0.4-0.7S34.6,31.4,36.3,32.8z"/>
				<path class="st10" d="M36,34.9c0,0-0.5,0.9-0.7,0.7c-0.2-0.2,0.4-0.9,0.4-0.9s-0.7-0.4-1.5,0.6c-0.9,0.9-0.4,1.7-0.4,1.7
					s0.6-0.4,0.7-0.3c0.1,0.1-0.1,0.8-0.1,0.8S36.7,37.1,36,34.9z"/>
				<path class="st10" d="M37.3,34.7c0,0,0.7,0.7,0.5,0.9c-0.2,0.2-0.7-0.7-0.7-0.7s-0.5,0.5,0.1,1.6s1.5,0.9,1.5,0.9
					s-0.2-0.7,0-0.8s0.7,0.3,0.7,0.3S39.6,34.8,37.3,34.7z"/>
				<path class="st10" d="M35.5,33.3c-0.3-1-0.8-1.2-1.3-1.3s-1.5,0-1.4,0.2c0.1,0.2,0.6,0.3,0.5,0.6c-0.1,0.3-0.9-0.3-0.9,0
					c0,0.3,1.2,2.1,3,1.1c0,0-0.8-0.3-0.8-0.6C34.7,33,35.5,33.3,35.5,33.3z"/>
				<path class="st10" d="M37.5,33.3c0.3-1,0.8-1.2,1.3-1.3s1.5,0,1.4,0.2c-0.1,0.2-0.6,0.3-0.5,0.6c0.1,0.3,0.9-0.3,0.9,0
					c0,0.3-1.2,2.1-3,1.1c0,0,0.8-0.3,0.8-0.6C38.3,33,37.5,33.3,37.5,33.3z"/>
			</g>
		</g>
		<g>
			<g>
				<circle class="st10" cx="28.1" cy="33.9" r="0.6"/>
				<path class="st10" d="M28.3,32.8c0,0,0.1-1-0.2-1s-0.2,1-0.2,1s-0.7-0.1-0.9-1.4c-0.2-1.3,0.6-1.6,0.6-1.6s0.3,0.7,0.5,0.7
					c0.2,0,0.4-0.7,0.4-0.7S30.1,31.4,28.3,32.8z"/>
				<path class="st10" d="M28.6,34.9c0,0,0.5,0.9,0.7,0.7s-0.4-0.9-0.4-0.9s0.7-0.4,1.5,0.6c0.9,0.9,0.4,1.7,0.4,1.7
					s-0.6-0.4-0.7-0.3s0.1,0.8,0.1,0.8S28,37.1,28.6,34.9z"/>
				<path class="st10" d="M27.3,34.7c0,0-0.7,0.7-0.5,0.9s0.7-0.7,0.7-0.7s0.5,0.5-0.1,1.6c-0.6,1.1-1.5,0.9-1.5,0.9s0.2-0.7,0-0.8
					s-0.7,0.3-0.7,0.3S25,34.8,27.3,34.7z"/>
				<path class="st10" d="M29.1,33.3c0.3-1,0.8-1.2,1.3-1.3c0.5-0.1,1.5,0,1.4,0.2c-0.1,0.2-0.6,0.3-0.5,0.6s0.9-0.3,0.9,0
					c0,0.3-1.2,2.1-3,1.1c0,0,0.8-0.3,0.8-0.6S29.1,33.3,29.1,33.3z"/>
				<path class="st10" d="M27.1,33.3c-0.3-1-0.8-1.2-1.3-1.3s-1.5,0-1.4,0.2c0.1,0.2,0.6,0.3,0.5,0.6c-0.1,0.3-0.9-0.3-0.9,0
					c0,0.3,1.2,2.1,3,1.1c0,0-0.8-0.3-0.8-0.6S27.1,33.3,27.1,33.3z"/>
			</g>
		</g>
		<g>
			<g>
				<polygon class="st9" points="29.8,46.9 30.2,45.6 32.3,50.3 28.4,46.9 				"/>
				<polygon class="st9" points="28.3,51.7 27.1,50.9 32.3,50.3 27.9,53 				"/>
				<polygon class="st9" points="32.2,54.6 31.1,55.4 32.3,50.4 33.3,55.5 				"/>
				<polygon class="st9" points="36.2,51.7 36.7,53.1 32.3,50.3 37.4,51 				"/>
				<polygon class="st9" points="34.8,47 36.3,47 32.3,50.3 34.5,45.6 				"/>
			</g>
			<g>
				<polygon class="st9" points="32.3,50.4 35.2,45 33.9,45.3 32.9,44.1 				"/>
				<polygon class="st9" points="32.3,50.4 31.7,44.2 30.8,45.2 29.3,44.8 				"/>
				<polygon class="st9" points="32.3,50.4 28,45.9 27.9,47.3 26.5,47.9 				"/>
				<polygon class="st9" points="32.3,50.4 26.2,49.1 26.9,50.3 26,51.5 				"/>
				<polygon class="st9" points="32.3,50.4 26.7,53.1 27.9,53.6 28,55.2 				"/>
				<polygon class="st9" points="32.3,50.4 33.1,56.6 34,55.6 35.5,55.9 				"/>
				<polygon class="st9" points="32.3,50.4 36.3,55.2 36.5,53.8 37.9,53.3 				"/>
				<polygon class="st9" points="32.3,50.4 38.4,51.7 37.7,50.5 38.5,49.2 				"/>
				<polygon class="st9" points="32.3,50.4 38,48 36.8,47.5 36.8,45.9 				"/>
				<polygon class="st9" points="32.3,50.4 29.1,55.8 30.4,55.5 31.4,56.7 				"/>
			</g>
			<g>
				<polygon class="st9" points="32.3,50.4 31.4,43.2 32.4,43.8 33.5,43.2 				"/>
				<polygon class="st9" points="32.3,50.4 25.1,49.2 26,48.4 25.7,47.2 				"/>
				<polygon class="st9" points="32.3,50.4 28.9,56.9 28.4,55.8 27.1,55.6 				"/>
				<polygon class="st9" points="32.3,50.4 37.3,55.6 36.2,55.8 35.6,56.9 				"/>
				<polygon class="st9" points="32.3,50.4 38.8,47.3 38.6,48.5 39.5,49.4 				"/>
			</g>
			<circle class="st9" cx="32.3" cy="50.4" r="1.7"/>
		</g>
		<rect x="24.8" y="7.6" class="st11" width="15" height="9.9"/>
		<circle class="st12" cx="32.2" cy="12.5" r="2.9"/>
		<g id="警察庁_1_">
			<g>
				<g>
					<path class="st1" d="M14.6,23.8l-0.1-0.6l-0.4,0.3l-0.7-0.5c0.2-0.1,0.5-0.3,0.8-0.6c0.2-0.2,0.3-0.3,0.4-0.5l-1.2,0.2
						l-0.1-0.5l1.2-0.2l-0.1-0.4l0.8-0.2c0.3,0,0.4,0,0.2,0.2l0,0.1l0.8-0.2l-0.1-0.4l0.8-0.2c0.3,0,0.4,0,0.2,0.2l0,0.1l1.1-0.2
						l0.1,0.5l-1.1,0.2l0,0.1l-1,0.2l0-0.1l-0.7,0.1L15.5,22l2.6-0.5l0.1,0.2c0.1-0.1,0.2-0.2,0.3-0.4c0.3-0.4,0.4-0.7,0.5-1.2
						l0.7,0c0.4,0,0.5,0.1,0.2,0.2c0,0,0,0.1-0.1,0.1l2.4-0.5l0.1,0.5l-0.8,0.2c0,0.2,0,0.4-0.2,0.6c-0.1,0.1-0.2,0.3-0.2,0.4
						c0.1,0,0.3,0.1,0.5,0.1c0.5,0,0.9,0,1.2,0l-0.2,0.8c-0.7,0-1.4-0.1-2-0.3c-0.3,0.2-0.6,0.4-1.1,0.7l1.7-0.3l0.1,0.5l-5.9,1.2
						l-0.1-0.5l1.4-0.3l-0.2-0.2L14.6,23.8z M23,23.5l-9,1.8l-0.1-0.5l9-1.8L23,23.5z M17.3,22.2l-2.2,0.4l-0.2,0.2l2-0.4l0.1,0.7
						c0.1,0,0.1-0.1,0.2-0.1c0,0,0-0.1,0-0.2L17.3,22.2z M15.4,23.1l0,0.2l0.8-0.2l0-0.2L15.4,23.1z M22.4,26.4l-1,0.2l0-0.1
						l-4.8,0.9l0.1,0.2l-1,0.2l-0.3-1.4l6.7-1.3L22.4,26.4z M21.6,24.5l-5.9,1.2l-0.1-0.5l5.9-1.2L21.6,24.5z M21.7,25.1l-5.9,1.2
						l-0.1-0.5l5.9-1.2L21.7,25.1z M16.5,26.8l0,0.2l4.8-0.9l0-0.2L16.5,26.8z M18.2,22.9c0,0.1,0,0.1,0,0.2c0,0-0.1,0.1-0.1,0.1
						c0,0-0.1,0.1-0.2,0.1l0.8-0.2L18.2,22.9z M19.1,21.8c-0.2,0.2-0.3,0.3-0.4,0.5l-0.5-0.4l0.1,0.9c0.2,0,0.5-0.2,0.9-0.3
						c0.2-0.1,0.4-0.2,0.5-0.3C19.5,22,19.3,21.9,19.1,21.8z M19.8,21.4c0.2,0.1,0.4,0.2,0.6,0.2c0-0.1,0.1-0.1,0.1-0.2
						c0.1-0.1,0.1-0.3,0.1-0.4l-1,0.2C19.6,21.3,19.7,21.3,19.8,21.4z"/>
				</g>
				<g>
					<path class="st1" d="M32.9,19.3l0,0.3l4.1,0l0,1.4l-0.9,0l0.1,0.1c0.1,0.1,0.1,0.2-0.1,0.2L35,22.3c0.2,0.1,0.5,0.3,0.9,0.4
						c0.4,0.2,0.9,0.3,1.3,0.4l-0.5,0.8c-0.3-0.1-0.7-0.2-1-0.3l0,0.5l-2.8,0l0,1.3c0,0.1,0,0.2,0,0.2c-0.1,0.2-0.4,0.4-0.8,0.4
						l-1,0L30.9,25l0.6,0c0.1,0,0.2,0,0.2-0.1s0-0.1,0-0.1l0-0.9l-2.9,0l0-0.3c-0.2,0.1-0.5,0.2-0.7,0.3l-0.6-0.7
						c0.3-0.1,0.6-0.2,1-0.3c0.3-0.1,0.5-0.2,0.6-0.3l-0.6-0.4c-0.1,0.1-0.2,0.1-0.3,0.2l-0.8-0.6c0.6-0.2,1.1-0.5,1.6-0.9
						c0.2-0.2,0.4-0.4,0.4-0.6l-0.7,0l0,0.7l-1.1,0l0-1.4l4.1,0l0-0.5l1,0C33.1,19.1,33.1,19.2,32.9,19.3z M31,24.7
						c-0.1,0-0.1,0-0.2,0c-0.3,0.2-0.6,0.4-0.8,0.5c-0.3,0.2-0.6,0.3-1,0.5l-0.8-0.7c0.2-0.1,0.5-0.2,0.7-0.3
						c0.5-0.3,0.9-0.5,1.2-0.8l0.8,0.5C31.1,24.6,31.1,24.7,31,24.7z M29.8,22.3l0.2-0.1c-0.3-0.1-0.5-0.3-0.8-0.4l-0.2,0.1
						C29.2,22,29.5,22.1,29.8,22.3z M34.2,22.9l-3.6,0l0-0.2c-0.2,0.1-0.3,0.3-0.5,0.4c-0.1,0.1-0.3,0.1-0.4,0.2l5.4,0.1
						C34.8,23.2,34.5,23,34.2,22.9L34.2,22.9z M29.7,21.4l0.8,0.4c0.1-0.1,0.3-0.3,0.4-0.4l-1.1,0L29.7,21.4z M29.8,20.3l0.6,0.1
						c0.1,0,0.2,0.1,0.2,0.1c0.1,0.1,0,0.1-0.2,0.2l1.1,0l0.2-0.1l0.4,0.5c0.1,0.2,0.1,0.2-0.1,0.2c-0.2,0.3-0.5,0.6-0.8,0.9l2.2,0
						c-0.5-0.4-0.9-0.9-1.3-1.6l0.9-0.3c0.4,0.6,0.8,1.1,1.3,1.4l0.3-0.4l-0.7,0l0-0.7l1.5,0l0.2-0.1l0.2,0.2l0-0.5L29.8,20.3z
						 M36.5,25.1l-0.8,0.7c-0.6-0.4-1.3-0.8-2.2-1.2l0.8-0.6C35,24.4,35.8,24.7,36.5,25.1z"/>
				</g>
				<g>
					<path class="st1" d="M48,21.8l-0.2,0.6l3.6,0.9L51.2,24l-7-1.7l-0.6,2.3c-0.1,0.2-0.1,0.4-0.2,0.5c-0.3,0.7-0.8,1.2-1.5,1.5
						l-0.8-0.7c0.7-0.3,1.2-0.8,1.3-1.5l0.8-3l3.4,0.8l0.2-0.8l0.9,0.2C48.2,21.7,48.2,21.7,48,21.8z M50.6,25.3L48,24.7l-0.7,2.7
						c0,0.1-0.1,0.1-0.1,0.2c-0.2,0.2-0.4,0.3-0.8,0.2l-1.1-0.3l0.1-0.8l0.7,0.2c0.1,0,0.2,0,0.2,0c0,0,0.1-0.1,0.1-0.1l0.6-2.3
						l-2.8-0.7l0.2-0.7l6.4,1.6L50.6,25.3z"/>
				</g>
			</g>
		</g>
	</g>
	<g>
		<circle class="st13" cx="3.8" cy="20.9" r="2.2"/>
		<g>
			<circle class="st1" cx="3.8" cy="21" r="0.3"/>
			<circle class="st1" cx="3.8" cy="20.2" r="0.3"/>
			<circle class="st1" cx="4.6" cy="20.7" r="0.3"/>
			<circle class="st1" cx="4.3" cy="21.7" r="0.3"/>
			<circle class="st1" cx="3.3" cy="21.7" r="0.3"/>
			<circle class="st1" cx="3" cy="20.7" r="0.3"/>
		</g>
	</g>
	<g>
		<circle class="st13" cx="60.8" cy="20.9" r="2.2"/>
		<g>
			<circle class="st1" cx="60.8" cy="21" r="0.3"/>
			<circle class="st1" cx="60.8" cy="20.2" r="0.3"/>
			<circle class="st1" cx="60" cy="20.7" r="0.3"/>
			<circle class="st1" cx="60.3" cy="21.7" r="0.3"/>
			<circle class="st1" cx="61.3" cy="21.7" r="0.3"/>
			<circle class="st1" cx="61.6" cy="20.7" r="0.3"/>
		</g>
	</g>
	<g>
		<path class="st13" d="M29.7,77.3l2.6,1.2l2.5-1.2c0,0-1.6-3.5-2.5-3.5C31.4,73.8,29.7,77.3,29.7,77.3z"/>
		<g>
			<circle class="st1" cx="32.3" cy="76.4" r="0.3"/>
			<circle class="st1" cx="32.3" cy="75.6" r="0.3"/>
			<circle class="st1" cx="31.5" cy="76.2" r="0.3"/>
			<circle class="st1" cx="31.8" cy="77.1" r="0.3"/>
			<circle class="st1" cx="32.8" cy="77.1" r="0.3"/>
			<circle class="st1" cx="33.1" cy="76.2" r="0.3"/>
		</g>
	</g>
</g>
</svg>
